<?xml version="1.0" standalone="no"?>
<!DOCTYPE svg PUBLIC "-//W3C//DTD SVG 20010904//EN"
 "http://www.w3.org/TR/2001/REC-SVG-20010904/DTD/svg10.dtd">
<svg version="1.0" xmlns="http://www.w3.org/2000/svg"
 width="744.000000pt" height="415.000000pt" viewBox="0 0 744.000000 415.000000"
 preserveAspectRatio="xMidYMid meet">

<g transform="translate(0.000000,415.000000) scale(0.100000,-0.100000)"
fill="#000000" stroke="none">
<path d="M346 3638 c-99 -13 -175 -70 -220 -168 -21 -45 -21 -52 -21 -1025 l0
-980 24 -53 c14 -30 43 -69 68 -92 81 -71 77 -71 646 -68 l508 3 -56 75 -55
75 -442 3 c-485 4 -481 3 -518 65 -19 31 -20 57 -20 968 l0 936 23 33 c12 18
35 43 50 54 28 21 34 21 743 21 l714 0 32 -33 33 -32 3 -464 3 -465 69 -15
c38 -9 73 -16 79 -16 12 0 14 869 2 963 -13 94 -49 153 -121 192 l-55 30 -715
0 c-394 0 -742 -3 -774 -7z"/>
<path d="M945 3270 c-124 -39 -186 -211 -116 -322 78 -123 225 -143 337 -45
53 46 80 122 70 192 -9 58 -56 126 -106 154 -46 26 -137 36 -185 21z"/>
<path d="M850 2741 c-58 -14 -87 -28 -130 -67 -51 -46 -79 -100 -87 -165 l-6
-49 384 2 383 3 -3 50 c-5 83 -58 157 -145 203 -48 25 -60 26 -206 28 -85 2
-171 -1 -190 -5z"/>
<path d="M1726 2305 c-89 -23 -174 -73 -247 -145 -123 -122 -176 -263 -166
-440 6 -116 31 -191 93 -282 188 -276 603 -309 846 -67 112 112 158 228 158
397 0 241 -137 438 -360 520 -84 31 -237 39 -324 17z m414 -315 c12 -12 20
-33 20 -54 0 -31 -17 -53 -146 -193 -252 -274 -234 -268 -382 -123 -58 57
-104 111 -108 127 -10 40 14 77 54 81 28 3 42 -6 111 -72 44 -42 82 -76 84
-76 2 0 62 66 133 147 71 80 138 154 148 165 26 24 61 23 86 -2z"/>
<path d="M536 2259 c-33 -26 -34 -68 -3 -97 23 -22 28 -22 370 -22 334 0 348
1 367 20 27 27 26 71 -3 98 -23 22 -28 22 -364 22 -329 0 -341 -1 -367 -21z"/>
<path d="M3960 1775 l0 -365 65 0 65 0 0 145 0 145 54 0 55 0 78 -145 78 -145
73 0 c39 0 72 2 72 4 0 2 -38 70 -85 152 -47 81 -85 150 -85 153 0 4 18 14 40
24 110 51 133 237 41 328 -55 55 -114 69 -298 69 l-153 0 0 -365z m315 241
c41 -18 55 -42 55 -98 0 -82 -51 -118 -170 -118 l-70 0 0 115 0 115 75 0 c43
0 90 -6 110 -14z"/>
<path d="M3638 2013 l-3 -78 -32 0 c-33 0 -33 0 -33 -47 l0 -48 35 0 35 0 0
-153 c0 -83 4 -167 10 -186 21 -73 86 -107 180 -95 l50 7 0 48 0 49 -39 0
c-64 0 -71 19 -71 187 l0 143 56 0 55 0 -3 48 -3 47 -52 3 -53 3 0 75 0 74
-65 0 -64 0 -3 -77z"/>
<path d="M536 1939 c-33 -26 -35 -70 -4 -99 21 -19 34 -20 301 -20 170 0 286
4 297 10 47 25 50 98 4 119 -17 7 -115 11 -298 11 -261 0 -274 -1 -300 -21z"/>
<path d="M2695 1931 c-158 -72 -197 -335 -69 -465 68 -69 204 -88 293 -43 40
21 111 102 111 128 0 5 -25 9 -56 9 -48 0 -61 -4 -91 -30 -74 -66 -172 -25
-197 83 l-6 27 181 0 182 0 -6 53 c-12 120 -61 202 -141 238 -54 24 -148 24
-201 0z m164 -97 c21 -15 51 -70 51 -94 0 -6 -43 -10 -115 -10 -63 0 -115 3
-115 7 0 21 44 92 63 101 33 16 90 14 116 -4z"/>
<path d="M4684 1936 c-93 -41 -147 -130 -152 -253 -4 -75 -1 -89 26 -146 31
-68 71 -106 131 -126 52 -17 150 -13 196 8 38 17 105 81 105 101 0 4 3 15 6
24 5 14 -3 16 -55 16 -46 0 -63 -4 -68 -15 -8 -23 -57 -45 -96 -45 -55 0 -117
63 -117 120 0 19 5 20 175 20 l175 0 0 48 c0 110 -54 206 -135 243 -48 22
-146 24 -191 5z m156 -113 c17 -16 34 -43 39 -60 l10 -33 -116 0 -115 0 6 28
c4 15 22 42 41 60 45 42 92 44 135 5z"/>
<path d="M5187 1936 c-71 -26 -107 -76 -107 -148 0 -86 53 -132 185 -158 78
-15 105 -33 105 -69 0 -41 -28 -61 -85 -61 -42 0 -52 4 -81 35 -29 31 -38 35
-85 35 l-52 0 6 -37 c13 -78 99 -132 213 -133 130 0 214 67 214 171 0 90 -53
134 -194 162 -88 18 -120 39 -110 71 10 32 35 45 85 46 44 0 89 -25 89 -50 0
-6 27 -10 61 -10 58 0 60 1 53 23 -11 36 -31 71 -51 89 -51 46 -167 62 -246
34z"/>
<path d="M6325 1939 c-11 -6 -33 -25 -48 -42 l-28 -32 3 35 3 35 -60 0 -60 0
-3 -262 -2 -263 64 0 65 0 3 189 c3 172 5 191 23 211 29 32 59 41 95 29 53
-19 60 -47 60 -249 l0 -180 65 0 65 0 0 180 c0 142 3 187 15 210 26 51 104 54
139 7 19 -26 21 -44 24 -213 l4 -184 59 0 59 0 0 208 c0 196 -1 210 -22 252
-29 56 -74 80 -148 80 -55 0 -110 -23 -137 -57 -10 -13 -17 -11 -53 18 -35 28
-50 34 -103 36 -34 2 -71 -2 -82 -8z"/>
<path d="M7105 1939 c-169 -49 -217 -363 -73 -484 49 -41 90 -55 163 -55 103
0 166 35 206 112 10 21 19 40 19 43 0 3 -25 5 -56 5 -48 0 -61 -4 -91 -30 -38
-34 -86 -39 -131 -16 -30 15 -47 42 -61 94 l-10 32 181 0 181 0 -6 69 c-9 112
-54 187 -132 222 -43 20 -137 24 -190 8z m161 -123 c21 -21 34 -44 34 -60 l0
-26 -111 0 -111 0 6 33 c9 48 57 87 107 87 33 0 47 -6 75 -34z"/>
<path d="M3063 1928 c2 -8 37 -65 76 -127 l71 -114 -85 -134 c-47 -73 -85
-136 -85 -138 0 -3 31 -5 68 -5 l69 0 49 90 c27 49 52 90 56 90 4 0 25 -33 47
-72 63 -114 57 -109 134 -106 l68 3 -86 138 -86 139 76 117 c41 64 75 120 75
124 0 5 -30 7 -67 5 l-67 -3 -43 -75 c-23 -41 -45 -75 -48 -75 -3 0 -25 34
-48 75 l-43 75 -68 3 c-54 2 -67 0 -63 -10z"/>
<path d="M5582 1721 c3 -205 4 -222 24 -248 37 -50 81 -73 141 -73 60 0 84 9
126 48 l27 26 0 -32 0 -32 60 0 60 0 0 265 0 265 -65 0 -65 0 0 -186 0 -186
-29 -29 c-35 -35 -86 -39 -122 -10 -23 19 -24 24 -29 213 l-5 193 -63 3 -63 3
3 -220z"/>
</g>
</svg>
